<?xml version="1.0" encoding="iso-8859-1"?>
<!-- Generator: Adobe Illustrator 15.0.0, SVG Export Plug-In . SVG Version: 6.00 Build 0)  -->
<!DOCTYPE svg PUBLIC "-//W3C//DTD SVG 1.1//EN" "http://www.w3.org/Graphics/SVG/1.1/DTD/svg11.dtd">
<svg version="1.1" id="&#x30EC;&#x30A4;&#x30E4;&#x30FC;_1"
	 xmlns="http://www.w3.org/2000/svg" xmlns:xlink="http://www.w3.org/1999/xlink" x="0px" y="0px" width="141.732px"
	 height="141.731px" viewBox="0 0 141.732 141.731" style="enable-background:new 0 0 141.732 141.731;" xml:space="preserve">
<path style="fill-rule:evenodd;clip-rule:evenodd;fill:#4F4F4F;" d="M38.854,20.179c-4.42,0-8.003,3.583-8.003,8.003v13.338H17.512
	c-4.42,0-8.003,3.583-8.003,8.003v64.025c0,4.42,3.583,8.003,8.003,8.003h85.367c4.421,0,8.004-3.583,8.004-8.003v-13.339h13.338
	c4.421,0,8.004-3.583,8.004-8.003V28.183c0-4.421-3.583-8.003-8.004-8.003H38.854z M30.85,54.86v37.348
	c0,4.42,3.583,8.003,8.003,8.003h58.69v4.868c0,1.732-1.403,3.136-3.135,3.136H25.981c-1.731,0-3.134-1.403-3.134-3.136V57.994
	c0-1.731,1.403-3.134,3.134-3.134H30.85z M44.189,36.652c0-1.731,1.403-3.134,3.135-3.134h68.427c1.731,0,3.135,1.403,3.135,3.134
	v47.085c0,1.732-1.403,3.136-3.135,3.136h-4.868H97.543h-50.22c-1.731,0-3.135-1.403-3.135-3.136V54.86V41.521V36.652z"/>
</svg>
